:SAMPLES-PER-SECOND 30
:FULLY-SPECIFIED
:DEGREES
172
root  60.0932 25.1592 -2.21133 -22.8873 -0.0526602 -4.22463
RightUpLeg  -55.0598 -13.4579 3.96557
RightLeg  74.2955 -1.93455 -8.99264
RightFoot  -1.35355 0.108106 -1.34217
RightToes  0.000482159 0.542163 -0.142577
Spine  53.4299 -2.67425 7.5755
Spine1  3.49917 -0.894981 3.46257
HEad  -8.67688 1.43174 -6.07647
LeftShoulder1  7.96409 -13.6849 -40.0818
LeftArm  -23.3106 3.1681 -23.9274
LeftForeArm  58.7407 -59.5404 -13.742
LeftHand  -0.25398 0.0180481 5.50724
RightShoulder  4.75274 9.50109 30.593
RightArm  -21.6087 -0.723989 35.4125
RightForeArm  19.6613 54.6255 14.2713
RightHand  -3.0614 8.18806 -26.1586
LeftUpLeg  -56.0167 6.32794 4.09324
LeftLeg  69.2665 3.9866 12.3584
LeftFoot  8.39152 -0.578942 3.03399
LeftToes  1.06245e-005 4.65855e-005 -8.18503e-006
173
root  60.1429 25.2272 -2.30924 -24.2316 -0.244118 -4.49321
RightUpLeg  -53.3387 -13.8293 3.9107
RightLeg  74.0753 -2.49064 -11.0182
RightFoot  -1.33951 0.144348 -1.75126
RightToes  0.000482159 0.542163 -0.142577
Spine  51.5624 -2.75532 8.13968
Spine1  2.85515 -0.697107 3.14952
HEad  -8.43635 1.70763 -5.8077
LeftShoulder1  8.05301 -13.4696 -41.1284
LeftArm  -21.0727 4.96454 -24.8251
LeftForeArm  56.3627 -55.8102 -11.7885
LeftHand  -0.25398 0.0180481 5.50724
RightShoulder  4.81954 9.32346 31.6298
RightArm  -21.8355 -4.87849 34.746
RightForeArm  18.3805 54.3978 14.2542
RightHand  -3.13885 8.44834 -26.3083
LeftUpLeg  -54.357 5.54902 4.69165
LeftLeg  68.9588 4.09477 12.4493
LeftFoot  8.66946 -0.534276 2.72777
LeftToes  1.06245e-005 4.65855e-005 -8.18503e-006
174
root  60.192 25.1973 -2.34883 -25.1741 -0.497736 -4.81533
RightUpLeg  -52.3311 -14.1001 4.11716
RightLeg  74.1138 -2.95442 -12.8385
RightFoot  -1.04191 0.247085 -2.81376
RightToes  0.000482159 0.542163 -0.142577
Spine  49.3775 -2.8612 8.8922
Spine1  2.34632 -0.503998 2.75131
HEad  -8.42932 2.04898 -5.6509
LeftShoulder1  8.16376 -13.3015 -42.1868
LeftArm  -19.0222 6.69975 -25.1393
LeftForeArm  54.038 -51.6285 -10.0041
LeftHand  -0.25398 0.0180481 5.50724
RightShoulder  4.74313 8.98931 32.0223
RightArm  -22.1913 -8.53055 34.2733
RightForeArm  16.3546 53.6911 14.0309
RightHand  -3.29189 8.69857 -27.0662
LeftUpLeg  -53.4874 4.83516 5.32228
LeftLeg  69.1906 4.05816 12.5055
LeftFoot  8.79476 -0.48767 2.44411
LeftToes  1.06245e-005 4.65855e-005 -8.18503e-006
175
root  60.2289 25.0612 -2.36439 -25.8223 -0.663136 -4.99933
RightUpLeg  -52.0176 -14.2552 4.30162
RightLeg  74.4187 -3.10845 -13.7266
RightFoot  -0.666618 0.355586 -3.85324
RightToes  0.000482159 0.542163 -0.142577
Spine  47.2198 -2.85356 9.36901
Spine1  1.62943 -0.418628 2.5806
HEad  -8.36073 2.4829 -5.65492
LeftShoulder1  8.3449 -13.1964 -43.4733
LeftArm  -17.5083 8.44789 -24.8083
LeftForeArm  51.2892 -46.7718 -8.32369
LeftHand  -0.25398 0.0180481 5.50724
RightShoulder  4.56597 8.69401 31.4865
RightArm  -22.3493 -11.6869 34.2653
RightForeArm  13.2992 51.8504 13.3036
RightHand  -3.40977 8.85029 -27.7047
LeftUpLeg  -53.3501 4.137 5.74531
LeftLeg  69.8051 4.00857 12.7995
LeftFoot  9.21799 -0.492818 2.40606
LeftToes  1.06245e-005 4.65855e-005 -8.18503e-006
176
root  60.2418 24.8609 -2.37111 -26.3247 -0.678634 -5.03947
RightUpLeg  -52.1185 -14.2764 4.31913
RightLeg  75.0325 -3.0227 -14.0257
RightFoot  -0.568507 0.394673 -4.22235
RightToes  0.000482159 0.542163 -0.142577
Spine  45.2288 -2.71841 9.36311
Spine1  0.900703 -0.502978 2.74654
HEad  -8.44286 3.13659 -5.61034
LeftShoulder1  8.57463 -13.103 -44.994
LeftArm  -16.8709 9.81418 -23.9437
LeftForeArm  48.2447 -40.9218 -6.65981
LeftHand  -0.25398 0.0180481 5.50724
RightShoulder  4.36382 8.44129 30.5778
RightArm  -21.728 -13.4677 34.3427
RightForeArm  8.86 47.8813 11.7915
RightHand  -3.68545 9.69527 -28.2373
LeftUpLeg  -53.6983 3.48121 5.90845
LeftLeg  70.6562 3.90743 13.134
LeftFoot  10.0835 -0.526746 2.4587
LeftToes  1.06245e-005 4.65855e-005 -8.18503e-006
177
root  60.2235 24.6626 -2.39103 -26.8486 -0.691758 -5.04087
RightUpLeg  -52.2052 -13.9784 4.21711
RightLeg  75.6961 -2.87552 -14.1447
RightFoot  -0.357558 0.398237 -4.16283
RightToes  0.000482159 0.542163 -0.142577
Spine  43.5867 -2.54847 9.10344
Spine1  0.367871 -0.639861 2.93808
HEad  -8.8874 3.92665 -5.17751
LeftShoulder1  8.84776 -13.0985 -46.4896
LeftArm  -16.6137 10.4483 -22.7382
LeftForeArm  44.1009 -33.4844 -4.91347
LeftHand  -0.25398 0.0180481 5.50724
RightShoulder  4.214 8.16198 30.1646
RightArm  -19.597 -12.9829 33.924
RightForeArm  3.06448 40.5491 9.40975
RightHand  -4.41701 11.905 -29.4449
LeftUpLeg  -54.0813 3.13448 5.91593
LeftLeg  71.6015 3.53766 12.7108
LeftFoot  10.722 -0.526559 2.36424
LeftToes  1.06245e-005 4.65855e-005 -8.18503e-006
178
root  60.1775 24.5134 -2.4425 -27.4351 -0.860832 -5.03799
RightUpLeg  -52.0664 -13.1651 4.05608
RightLeg  76.0504 -2.69569 -13.7654
RightFoot  0.638489 0.446605 -4.20741
RightToes  0.000482159 0.542163 -0.142577
Spine  42.4844 -2.45992 8.92997
Spine1  -0.190994 -0.663775 2.67551
HEad  -9.36057 4.56022 -4.30327
LeftShoulder1  9.13616 -13.2946 -47.468
LeftArm  -15.7654 10.5468 -21.5395
LeftForeArm  37.1852 -24.004 -3.42969
LeftHand  -0.25398 0.0180481 5.50724
RightShoulder  4.22484 8.08993 30.4841
RightArm  -15.7897 -10.6633 33.1095
RightForeArm  -2.48823 29.5599 6.63916
RightHand  -5.24182 14.2016 -30.7969
LeftUpLeg  -54.2024 3.31373 5.8151
LeftLeg  72.5285 2.90234 11.3008
LeftFoot  10.3299 -0.475354 2.15256
LeftToes  1.06245e-005 4.65855e-005 -8.18503e-006
179
root  60.121 24.4272 -2.51232 -27.953 -1.15832 -5.03562
RightUpLeg  -51.8138 -11.9987 3.88914
RightLeg  76.0706 -2.44273 -12.6592
RightFoot  2.08688 0.521086 -4.30239
RightToes  0.000482159 0.542163 -0.142577
Spine  41.7702 -2.54285 9.08324
Spine1  -0.872469 -0.545958 1.75154
HEad  -9.58851 4.81759 -3.32313
LeftShoulder1  9.34916 -13.6455 -47.5846
LeftArm  -15.1742 10.5714 -20.7348
LeftForeArm  28.9795 -13.4305 -3.24401
LeftHand  -0.25398 0.0180481 5.50724
RightShoulder  4.47322 8.54501 31.1747
RightArm  -13.5084 -8.10553 32.3815
RightForeArm  -3.16412 16.8315 4.91084
RightHand  -5.35904 14.6934 -30.6994
LeftUpLeg  -54.1515 3.88553 5.62913
LeftLeg  73.3923 2.31333 9.81227
LeftFoot  9.14516 -0.396143 1.88202
LeftToes  1.06245e-005 4.65855e-005 -8.18503e-006
180
root  60.0726 24.3968 -2.57229 -28.3059 -1.41396 -5.05476
RightUpLeg  -51.5858 -10.9721 3.74371
RightLeg  76.0703 -2.2034 -11.5774
RightFoot  2.82067 0.536855 -4.16136
RightToes  0.000482159 0.542163 -0.142577
Spine  41.0835 -2.74294 9.61149
Spine1  -1.26287 -0.348756 0.482082
HEad  -10.0068 4.66701 -2.60539
LeftShoulder1  9.44909 -14.0008 -47.1078
LeftArm  -14.5225 10.8797 -20.5326
LeftForeArm  22.4357 -4.83551 -3.56106
LeftHand  -0.25398 0.0180481 5.50724
RightShoulder  4.82885 9.27543 31.8446
RightArm  -17.3183 -6.78924 31.9483
RightForeArm  3.70961 6.27461 4.63744
RightHand  -4.79994 13.5288 -29.2794
LeftUpLeg  -54.0435 4.47799 5.39521
LeftLeg  74.1573 1.99088 9.09498
LeftFoot  8.17119 -0.304179 1.4797
LeftToes  1.06245e-005 4.65855e-005 -8.18503e-006
181
root  60.0363 24.4031 -2.61349 -28.5813 -1.47658 -5.03531
RightUpLeg  -51.3237 -10.3697 3.47062
RightLeg  76.2929 -2.12716 -11.4502
RightFoot  2.46011 0.491662 -3.9192
RightToes  0.000482159 0.542163 -0.142577
Spine  40.4147 -2.84303 10.2035
Spine1  -1.01302 -0.0998119 -0.499422
HEad  -11.2384 4.1412 -2.26088
LeftShoulder1  9.51256 -14.2375 -46.7837
LeftArm  -13.131 11.8076 -20.6241
LeftForeArm  20.7589 -1.16378 -3.62622
LeftHand  -0.25398 0.0180481 5.50724
RightShoulder  4.99935 9.58709 32.2491
RightArm  -18.7919 -7.20936 32.3217
RightForeArm  5.1179 1.99677 3.31095
RightHand  -4.30408 12.1843 -28.33
LeftUpLeg  -53.6713 4.81987 5.06118
LeftLeg  74.717 1.84285 8.86914
LeftFoot  7.70071 -0.252955 1.22839
LeftToes  1.06245e-005 4.65855e-005 -8.18503e-006
182
root  60.0048 24.4253 -2.64713 -28.9165 -1.34991 -4.87198
RightUpLeg  -50.8745 -9.97942 2.83978
RightLeg  76.6333 -2.20125 -12.1448
RightFoot  1.87176 0.449745 -3.76903
RightToes  0.000482159 0.542163 -0.142577
Spine  40.0977 -2.70287 10.4122
Spine1  -0.433343 0.182468 -0.832605
HEad  -13.2988 3.32123 -2.22931
LeftShoulder1  9.60338 -14.2954 -47.0841
LeftArm  -12.7033 13.6301 -20.4514
LeftForeArm  24.9977 -2.5904 -3.64811
LeftHand  -0.25398 0.0180481 5.50724
RightShoulder  4.89324 9.26365 32.3847
RightArm  -20.2889 -9.18696 33.0668
RightForeArm  1.83915 3.51927 3.27673
RightHand  -4.14626 11.5077 -28.37
LeftUpLeg  -52.8236 4.9057 4.55981
LeftLeg  74.9202 1.70991 8.45099
LeftFoot  7.06497 -0.32112 1.72212
LeftToes  1.06245e-005 4.65855e-005 -8.18503e-006
183
root  59.9771 24.4434 -2.67786 -29.2921 -1.20206 -4.59374
RightUpLeg  -50.2841 -9.49926 1.92309
RightLeg  76.8745 -2.27915 -12.7818
RightFoot  1.79796 0.409479 -3.44715
RightToes  0.000482159 0.542163 -0.142577
Spine  40.3127 -2.44659 10.2672
Spine1  -0.0759146 0.47602 -0.826591
HEad  -15.7608 2.47304 -2.42699
LeftShoulder1  9.6569 -14.1633 -47.7126
LeftArm  -12.4655 16.1523 -20.1329
LeftForeArm  29.384 -6.95253 -3.83734
LeftHand  -0.25398 0.0180481 5.50724
RightShoulder  4.76244 8.85029 32.6091
RightArm  -20.5532 -12.106 33.6307
RightForeArm  -3.73966 8.41645 4.29166
RightHand  -4.16069 11.5674 -28.3697
LeftUpLeg  -51.8062 4.85748 4.04602
LeftLeg  74.8056 1.60293 7.93018
LeftFoot  5.99172 -0.464262 2.8074
LeftToes  1.06245e-005 4.65855e-005 -8.18503e-006
